<svg width="100" height="60" viewBox="0 0 100 60" fill="none" xmlns="http://www.w3.org/2000/svg">
<path d="M18.44 34.56C18.44 34.5867 18.4267 34.6 18.4 34.6C18.4 34.6 18.4 34.6133 18.4 34.64C18.4 34.6667 18.4133 34.68 18.44 34.68H27.04C27.28 34.68 27.4 34.5733 27.4 34.36V21.8C27.4 21.7733 27.3867 21.76 27.36 21.76C27.3067 21.76 27.28 21.7733 27.28 21.8L18.44 34.56ZM15.76 38.2C15.28 38.2 14.8667 38.0267 14.52 37.68C14.1733 37.3333 14 36.92 14 36.44C14 35.2667 14.3333 34.2 15 33.24L26.16 17.16C26.96 15.9867 28.0933 15.4 29.56 15.4C30.1467 15.4 30.6533 15.6133 31.08 16.04C31.5067 16.4667 31.72 16.9733 31.72 17.56V34.36C31.72 34.5733 31.84 34.68 32.08 34.68H34.64C35.12 34.68 35.5333 34.8533 35.88 35.2C36.2267 35.5467 36.4 35.96 36.4 36.44C36.4 36.92 36.2267 37.3333 35.88 37.68C35.5333 38.0267 35.12 38.2 34.64 38.2H32.08C31.84 38.2 31.72 38.32 31.72 38.56V42.44C31.72 43.0267 31.5067 43.5333 31.08 43.96C30.6533 44.3867 30.1467 44.6 29.56 44.6C28.9733 44.6 28.4667 44.3867 28.04 43.96C27.6133 43.5333 27.4 43.0267 27.4 42.44V38.56C27.4 38.32 27.28 38.2 27.04 38.2H15.76Z" fill="#4481C3"/>
<path d="M55.9953 21.16C54.9553 19.4 53.3553 18.52 51.1953 18.52C49.0353 18.52 47.422 19.4 46.3553 21.16C45.3153 22.8933 44.7953 25.84 44.7953 30C44.7953 34.16 45.3153 37.12 46.3553 38.88C47.422 40.6133 49.0353 41.48 51.1953 41.48C53.3553 41.48 54.9553 40.6133 55.9953 38.88C57.062 37.12 57.5953 34.16 57.5953 30C57.5953 25.84 57.062 22.8933 55.9953 21.16ZM59.2753 41.44C57.4886 43.8133 54.7953 45 51.1953 45C47.5953 45 44.8886 43.8133 43.0753 41.44C41.2886 39.0667 40.3953 35.2533 40.3953 30C40.3953 24.7467 41.2886 20.9333 43.0753 18.56C44.8886 16.1867 47.5953 15 51.1953 15C54.7953 15 57.4886 16.1867 59.2753 18.56C61.0886 20.9333 61.9953 24.7467 61.9953 30C61.9953 35.2533 61.0886 39.0667 59.2753 41.44Z" fill="#4481C3"/>
<path d="M68.8306 34.56C68.8306 34.5867 68.8173 34.6 68.7906 34.6C68.7906 34.6 68.7906 34.6133 68.7906 34.64C68.7906 34.6667 68.804 34.68 68.8306 34.68H77.4306C77.6706 34.68 77.7906 34.5733 77.7906 34.36V21.8C77.7906 21.7733 77.7773 21.76 77.7506 21.76C77.6973 21.76 77.6706 21.7733 77.6706 21.8L68.8306 34.56ZM66.1506 38.2C65.6706 38.2 65.2573 38.0267 64.9106 37.68C64.564 37.3333 64.3906 36.92 64.3906 36.44C64.3906 35.2667 64.724 34.2 65.3906 33.24L76.5506 17.16C77.3506 15.9867 78.484 15.4 79.9506 15.4C80.5373 15.4 81.044 15.6133 81.4706 16.04C81.8973 16.4667 82.1106 16.9733 82.1106 17.56V34.36C82.1106 34.5733 82.2306 34.68 82.4706 34.68H85.0306C85.5106 34.68 85.924 34.8533 86.2706 35.2C86.6173 35.5467 86.7906 35.96 86.7906 36.44C86.7906 36.92 86.6173 37.3333 86.2706 37.68C85.924 38.0267 85.5106 38.2 85.0306 38.2H82.4706C82.2306 38.2 82.1106 38.32 82.1106 38.56V42.44C82.1106 43.0267 81.8973 43.5333 81.4706 43.96C81.044 44.3867 80.5373 44.6 79.9506 44.6C79.364 44.6 78.8573 44.3867 78.4306 43.96C78.004 43.5333 77.7906 43.0267 77.7906 42.44V38.56C77.7906 38.32 77.6706 38.2 77.4306 38.2H66.1506Z" fill="#4481C3"/>
</svg>
